<svg xmlns="http://www.w3.org/2000/svg" width="64" height="64" viewBox="0 0 64 64" role="img" aria-labelledby="title desc">
  <title id="title">Ceylon Chai Favicon</title>
  <desc id="desc">Circular tea cup icon favicon.</desc>
  <defs>
    <linearGradient id="g" x1="0" y1="0" x2="1" y2="1">
      <stop offset="0%" stop-color="#4a2714"/>
      <stop offset="100%" stop-color="#9a5728"/>
    </linearGradient>
  </defs>
  <circle cx="32" cy="32" r="31" fill="url(#g)"/>
  <path d="M18 34h24v4a10 10 0 0 1-10 10h-4a10 10 0 0 1-10-10v-4z" fill="#f2deb5"/>
  <path d="M42 36h3a5 5 0 0 1 0 10h-3" fill="none" stroke="#f2deb5" stroke-width="2.8" stroke-linecap="round"/>
  <path d="M24 29c0-3 2.4-4.6 2.4-7" fill="none" stroke="#f8e7c8" stroke-width="2.2" stroke-linecap="round"/>
  <path d="M31 29c0-3 2.4-4.6 2.4-7" fill="none" stroke="#f8e7c8" stroke-width="2.2" stroke-linecap="round"/>
  <path d="M38 29c0-3 2.4-4.6 2.4-7" fill="none" stroke="#f8e7c8" stroke-width="2.2" stroke-linecap="round"/>
</svg>
